<svg width="30" height="30" viewBox="0 0 30 30" fill="none" xmlns="http://www.w3.org/2000/svg">
<path d="M13.3894 1.00004H13.4742H13.5671H13.6655H13.9333H14.2121H14.6821H15.2233H15.6879H15.9666H16.229H16.3711H16.4558H16.5296C16.587 1.00277 16.587 1.00277 16.6417 1.03011C16.6799 1.03558 16.7182 1.04104 16.7565 1.04378C17.5408 1.12305 18.306 1.3226 19.0549 1.56315C19.1014 1.57682 19.1478 1.59322 19.1943 1.60689C20.1891 1.91852 21.1429 2.33129 22.0338 2.87249C22.1021 2.91349 22.1731 2.9545 22.2415 2.9955C22.9548 3.42194 23.6243 3.94405 24.2365 4.50447C24.2912 4.55367 24.3458 4.60288 24.4005 4.64934C24.7202 4.92817 25.0372 5.2152 25.3133 5.54049C25.3597 5.59516 25.4062 5.6471 25.4554 5.69903C25.9664 6.25122 26.4147 6.89087 26.8027 7.53596C26.8437 7.6043 26.8847 7.66991 26.9257 7.73824C27.199 8.18108 27.4586 8.62665 27.6828 9.09411C27.6964 9.12145 27.7073 9.14605 27.721 9.17065C28.4507 10.7015 28.8853 12.3607 28.959 14.0583C28.9645 14.1321 28.9699 14.1895 28.9945 14.2606C28.9973 14.3289 29 14.3945 29 14.4601V14.5203V14.7198V14.8592V15.1517C28.9973 15.2747 28.9973 15.4005 29 15.5235V15.8105V15.9472V16.1413V16.1987C28.9973 16.2807 28.9945 16.3408 28.9672 16.4201C28.9617 16.472 28.959 16.524 28.9535 16.5759C28.8306 18.1095 28.355 19.7824 27.6335 21.1437C27.5952 21.2148 27.557 21.2886 27.5214 21.3624C27.3301 21.7424 27.1224 22.1059 26.8901 22.4613C26.8737 22.4859 26.8737 22.4859 26.8573 22.5133C26.625 22.8741 26.3681 23.2185 26.0976 23.5548C26.0866 23.5684 26.0757 23.5821 26.0648 23.5958C25.9363 23.7571 25.8024 23.9129 25.663 24.0659C25.6139 24.1206 25.5647 24.178 25.5155 24.2327C25.2832 24.4979 25.0427 24.7521 24.794 25.0008L24.7557 25.0391C24.6218 25.173 24.4851 25.3043 24.3403 25.4273C24.2802 25.4819 24.2228 25.5366 24.1654 25.5913C23.9413 25.799 23.6926 25.974 23.4466 26.1517C23.4056 26.1845 23.3646 26.2145 23.3209 26.2446C21.7795 27.3791 20.0004 28.292 18.1173 28.6938C18.09 28.6993 18.0599 28.7075 18.0326 28.713C17.3986 28.8469 16.77 28.918 16.125 28.9508C16.1031 28.9508 16.084 28.9535 16.0648 28.9535C16.0266 28.9563 15.9911 28.9563 15.9528 28.959C15.8571 28.9617 15.8571 28.9617 15.767 28.9945C15.7314 28.9973 15.6932 29 15.6576 29H15.5893H15.5128H15.4363H15.2778H15.0318H14.876H14.8022H14.7339H14.6738C14.6191 28.9945 14.6191 28.9945 14.5371 28.9672C14.5043 28.9645 14.4715 28.9617 14.4387 28.9617C14.4087 28.9617 14.4087 28.9617 14.3786 28.959C14.3567 28.959 14.3376 28.959 14.313 28.9563C14.2693 28.9563 14.2228 28.9535 14.1764 28.9508C14.1518 28.9508 14.1272 28.9508 14.0998 28.9481C12.0282 28.8661 9.97856 28.292 7.59544 26.9444C7.55171 26.9198 7.50799 26.8924 7.46426 26.8678C7.00511 26.5917 6.56785 26.2883 6.14694 25.9603C6.12781 25.9439 6.12781 25.9439 6.10595 25.9302C5.88732 25.758 5.68781 25.5694 5.4883 25.3808C5.42271 25.3206 5.35711 25.2578 5.29153 25.1976C5.10022 25.0227 4.91711 24.845 4.74767 24.6509C4.69847 24.5935 4.64655 24.5416 4.59189 24.4896C4.48804 24.3858 4.39238 24.2709 4.29946 24.1561C4.25573 24.1015 4.21201 24.0468 4.16554 23.9949C3.96331 23.7598 3.77746 23.5165 3.59709 23.265C3.5561 23.2048 3.51237 23.1474 3.47138 23.09C2.55037 21.8326 1.89174 20.4029 1.47361 18.9077C1.46815 18.8886 1.46268 18.8722 1.45721 18.8503C1.32057 18.3582 1.19211 17.8662 1.1074 17.3604C1.09646 17.2976 1.08553 17.2374 1.07187 17.1746C0.998078 16.8329 0.998078 16.4966 1.00081 16.1495V15.898V15.4797V14.9959V14.5257V14.3289V14.0528V13.9708C1.00354 13.7822 1.03087 13.6018 1.06367 13.4132C1.0746 13.353 1.08007 13.2902 1.08827 13.2273C1.09373 13.1945 1.09646 13.1617 1.10193 13.1289C1.10193 13.1125 1.10466 13.0961 1.10739 13.0797C1.28777 11.65 1.69771 10.1493 2.37543 8.87273C2.4055 8.81806 2.43283 8.76612 2.46015 8.71419C2.94662 7.76837 3.55338 6.86633 4.24749 6.05983C4.31582 5.98056 4.38141 5.89855 4.447 5.81928C4.52898 5.71814 4.61097 5.62519 4.70389 5.53499C4.75308 5.48852 4.79681 5.43932 4.84054 5.38737C4.94986 5.2589 5.07011 5.13861 5.19036 5.02107C5.20949 4.9992 5.23135 4.97733 5.25322 4.9582C5.38166 4.82698 5.51559 4.70397 5.65496 4.5837C5.68775 4.55636 5.72055 4.52629 5.75334 4.49896C5.96378 4.31581 6.17695 4.13813 6.39559 3.96864C6.45298 3.9249 6.50764 3.8839 6.56229 3.84017C6.79186 3.65975 7.0269 3.49027 7.27286 3.33172C7.32205 3.30165 7.36851 3.26885 7.41497 3.23605C9.04924 2.10705 11.1263 1.23782 13.1104 1.03827C13.2088 1.0246 13.2883 1.00004 13.3894 1.00004ZM11.9957 9.5316C11.9738 9.54254 11.9519 9.55347 11.9301 9.56714C10.5008 10.3134 9.27905 11.683 8.78171 13.2247C8.69699 13.4926 8.63412 13.766 8.57947 14.042C8.57674 14.0667 8.57127 14.0885 8.56581 14.1131C8.31711 15.4198 8.55488 16.8194 9.12607 18.0058C9.13427 18.0249 9.1452 18.044 9.1534 18.0632C9.35563 18.4759 9.62347 18.845 9.94049 19.1758C9.98695 19.225 10.0334 19.2769 10.0771 19.3261C10.2384 19.512 10.416 19.6733 10.6073 19.8264C10.6483 19.8564 10.6839 19.8892 10.7221 19.922C10.8943 20.0642 11.0719 20.1981 11.2578 20.3211C11.2714 20.3321 11.2851 20.3403 11.2988 20.3485C12.4111 21.0865 13.7092 21.4829 15.0456 21.4857H15.1058C15.4856 21.4857 15.8573 21.4556 16.2318 21.3955C16.2618 21.3927 16.2891 21.3873 16.3192 21.3818C17.7075 21.1522 18.9264 20.4141 19.8393 19.3453C19.8638 19.318 19.8884 19.2906 19.913 19.2633C20.7985 18.2491 21.3287 17.112 21.4517 15.7643C21.4544 15.7479 21.4544 15.7315 21.4572 15.7151C21.5993 14.1187 21.0937 12.4895 20.0825 11.2457C19.7327 10.8356 19.3419 10.4529 18.9046 10.1413C18.8636 10.1112 18.8253 10.0839 18.7844 10.0538C16.7866 8.58865 14.1848 8.39995 11.9957 9.5316Z" fill="white" stroke="white" stroke-width="1.36769" stroke-miterlimit="10"/>
</svg>
